# xmcd
#
# Track frame offsets: 
#        150
#        11923
#        26079
#        40171
#        54081
#        63697
#        77241
#        89713
#        103990
#        117187
#        129664
#        141063
#        154310
#        168056
#        180673
#        195156
#        209106
#        223308
#        234995
#        248312
#        262345
#        276246
#        292411
#        303815
#
# Disc length: 4191 seconds
#
# Revision: 2
# Processed by: cddbd v1.5.2PL0 Copyright (c) Steve Scherf et al.
# Submitted via: ExactAudioCopy v1.1
#
DISCID=6c105d18
DTITLE=The Bandwagon - Breakin' DownThe Walls of Heartache: The best o
DTITLE=f Johnny Johnson and The Bandwagon (1968-1975)
DYEAR=2008
DGENRE=Soul
TTITLE0=Breakin' down the walls of heartache
TTITLE1=When love has gone away
TTITLE2=Johnny Johnson and The Bandwagon - Let's hang on
TTITLE3=Stoned soul picnic
TTITLE4=I ain't lyin'
TTITLE5=Baby,make your own sweet music
TTITLE6=On the day we fall in love
TTITLE7=Dancing master
TTITLE8=I wish it would rain
TTITLE9=You blew your cool and lost your fool
TTITLE10=Are you ready for this
TTITLE11=People got to be free
TTITLE12=Don't let it in
TTITLE13=You
TTITLE14=Girl from Harlem
TTITLE15=Johnny Johnson and The Bandwagon - Sweet inspiration
TTITLE16=Johnny Johnson and The Bandwagon - In the bad bad old days (b
TTITLE16=efore you loved me)
TTITLE17=Johnny Johnson and The Bandwagon - United we stand
TTITLE18=Johnny Johnson and The Bandwagon - Sally,put your red shoes o
TTITLE18=n
TTITLE19=Johnny Johnson and The Bandwagon - Mr. Tambourine Man
TTITLE20=Johnny Johnson and The Bandwagon - Blame it (on the pony expr
TTITLE20=ess)
TTITLE21=Johnny Johnson and The Bandwagon - Gasoline Alley Bred
TTITLE22=Johnny Johnson and The Bandwagon - High and dry
TTITLE23=Johnny Johnson and The Bandwagon - Music to my heart
EXTD=
EXTT0=
EXTT1=
EXTT2=Johnny Johnson&the Bandwagon
EXTT3=
EXTT4=
EXTT5=
EXTT6=
EXTT7=
EXTT8=
EXTT9=
EXTT10=
EXTT11=
EXTT12=
EXTT13=
EXTT14=
EXTT15=Johnny Johnson&the Bandwagon
EXTT16=Johnny Johnson&the Bandwagon
EXTT17=Johnny Johnson&the Bandwagon
EXTT18=Johnny Johnson&the Bandwagon
EXTT19=Johnny Johnson&the Bandwagon
EXTT20=Johnny Johnson&the Bandwagon
EXTT21=Johnny Johnson&the Bandwagon
EXTT22=Johnny Johnson&the Bandwagon
EXTT23=Johnny Johnson&the Bandwagon
PLAYORDER=
